{"title":"The.Core.[2003].DvdRip.[Dual.Audio].[Eng-Hindi]-ahl07","uid":5285729,"size":767086870,"categoryP":"video","categoryS":"movies","magnet":"?xt=urn:btih:84b82540b67b064f11580c3e2dcd0f8f037a3aef&amp;dn=The.Core.%5B2003%5D.DvdRip.%5BDual.Audio%5D.%5BEng-Hindi%5D-ahl07&amp;tr=udp%3A%2F%2Ftracker.openbittorrent.com%3A80&amp;tr=udp%3A%2F%2Fopen.demonii.com%3A1337&amp;tr=udp%3A%2F%2Ftracker.coppersurfer.tk%3A6969&amp;tr=udp%3A%2F%2Fexodus.desync.com%3A6969","seeders":2,"leechers":0,"uploader":"ahl07","files":-1,"time":1263714633,"description":"HD DESI ROCKERS RELEASES\n\n\nGeneral\nComplete name                    : The.Core.[2003].DvdRip.[Dual.Audio].[Eng-Hindi].mkv\nFormat                           : Matroska\nFile size                        : 732 MiB\nDuration                         : 2h 9mn\nOverall bit rate                 : 790 Kbps\nWriting application              : AVI-Mux GUI 1.17.8, Aug 30 2008  12:36:58\nWriting library                  : matroska muxer by Alexander Noe, build date Aug 30 2008\n\nVideo\nID                               : 1\nFormat                           : MPEG-4 Visual\nFormat profile                   : Advanced Simple@L5\nFormat settings, BVOP            : Yes\nFormat settings, QPel            : No\nFormat settings, GMC             : No warppoints\nFormat settings, Matrix          : Custom\nCodec ID                         : XVID\nCodec ID/Hint                    : XviD\nDuration                         : 2h 9mn\nBit rate                         : 614 Kbps\nWidth                            : 608 pixels\nHeight                           : 256 pixels\nDisplay aspect ratio             : 2.35:1\nFrame rate                       : 25.000 fps\nColor space                      : YUV\nChroma subsampling               : 4:2:0\nBit depth                        : 8 bits\nScan type                        : Progressive\nBits/(Pixel*Frame)               : 0.158\nStream size                      : 569 MiB (78%)\nWriting library                  : XviD 1.2.0.dev47 (UTC 2006-11-01)\n\nAudio #1\nID                               : 2\nFormat                           : MPEG Audio\nFormat version                   : Version 1\nFormat profile                   : Layer 3\nMode                             : Joint stereo\nMode extension                   : MS Stereo\nCodec ID                         : A_MPEG/L3\nCodec ID/Hint                    : MP3\nDuration                         : 2h 9mn\nBit rate mode                    : Constant\nBit rate                         : 80.0 Kbps\nChannel(s)                       : 2 channels\nSampling rate                    : 44.1 KHz\nStream size                      : 74.1 MiB (10%)\nWriting library                  : LAME3.96r\nLanguage                         : English\n\nAudio #2\nID                               : 3\nFormat                           : MPEG Audio\nFormat version                   : Version 1\nFormat profile                   : Layer 3\nMode                             : Joint stereo\nMode extension                   : MS Stereo\nCodec ID                         : A_MPEG/L3\nCodec ID/Hint                    : MP3\nDuration                         : 2h 9mn\nBit rate mode                    : Constant\nBit rate                         : 80.0 Kbps\nChannel(s)                       : 2 channels\nSampling rate                    : 44.1 KHz\nStream size                      : 74.1 MiB (10%)\nWriting library                  : LAME3.96r\nLanguage                         : Hindi","torrent":{"xt":"urn:btih:84b82540b67b064f11580c3e2dcd0f8f037a3aef","amp;dn":"The.Core.%5B2003%5D.DvdRip.%5BDual.Audio%5D.%5BEng-Hindi%5D-ahl07","amp;tr":["udp%3A%2F%2Ftracker.openbittorrent.com%3A80","udp%3A%2F%2Fopen.demonii.com%3A1337","udp%3A%2F%2Ftracker.coppersurfer.tk%3A6969","udp%3A%2F%2Fexodus.desync.com%3A6969"],"infoHash":"84b82540b67b064f11580c3e2dcd0f8f037a3aef","infoHashBuffer":{"type":"Buffer","data":[132,184,37,64,182,123,6,79,17,88,12,62,45,205,15,143,3,122,58,239]},"announce":[],"urlList":[]}}